<svg xmlns="http://www.w3.org/2000/svg" width="24" height="24" fill="none" viewBox="0 0 24 24" id="google-mail">
  <path stroke="#000" stroke-linejoin="round" stroke-width="2" d="M17 10L12 13L7 10M17 10V19H21L21 7.6M17 10L21 7.6M17 10V4.9M17 4.9L12 8.00001L7 4.9M17 4.9L17.7573 4.43286C18.0985 4.16187 18.5304 4 19 4C20.1046 4 21 4.89543 21 6L21 7.6M7 10V19H3L3.00003 7.60001M7 10L3.00003 7.60001M7 10V4.9M7 4.9L6.24277 4.43286C5.90149 4.16187 5.46966 4 5.00003 4C3.89546 4 3.00003 4.89543 3.00003 6L3.00003 7.60001"></path>
</svg>
