<svg xmlns="http://www.w3.org/2000/svg" width="24" height="24" fill="none" viewBox="0 0 24 24" id="instagram">
  <path stroke="#000" stroke-linecap="round" stroke-linejoin="round" stroke-width="2" d="M3 7C3 4.79086 4.79086 3 7 3H17C19.2091 3 21 4.79086 21 7V17C21 19.2091 19.2091 21 17 21H7C4.79086 21 3 19.2091 3 17V7Z"></path>
  <path stroke="#000" stroke-linecap="round" stroke-linejoin="round" stroke-width="2" d="M15 12C15 13.6569 13.6569 15 12 15 10.3431 15 9 13.6569 9 12 9 10.3431 10.3431 9 12 9 13.6569 9 15 10.3431 15 12zM18 7C18 7.55228 17.5523 8 17 8 16.4477 8 16 7.55228 16 7 16 6.44772 16.4477 6 17 6 17.5523 6 18 6.44772 18 7z"></path>
</svg>
