<svg xmlns="http://www.w3.org/2000/svg" width="24" height="24" fill="none" viewBox="0 0 24 24" id="whatsapp">
  <path stroke="#000" stroke-linecap="round" stroke-linejoin="round" stroke-width="2" d="M12 21C16.9706 21 21 16.9706 21 12C21 7.02944 16.9706 3 12 3C7.02944 3 3 7.02944 3 12C3 13.8841 3.57894 15.633 4.56863 17.0784L3 21L7.18497 19.605C8.57736 20.4884 10.2289 21 12 21Z"></path>
  <path stroke="#000" stroke-linecap="round" stroke-linejoin="round" stroke-width="2" d="M16.3033 16.1819C16.6752 15.81 16.9471 15.3679 17.1225 14.8799L15.2426 12.9999L13.1213 13.7071C13.1213 13.7071 12.1346 13.4274 11.3535 12.6464C10.5725 11.8653 10.2929 10.8786 10.2929 10.8786L11 8.75731L9.12008 6.8774C8.63198 7.05281 8.18991 7.32474 7.818 7.69665C6.06064 9.45401 6.53552 12.7781 8.87866 15.1213C11.2218 17.4644 14.5459 17.9393 16.3033 16.1819Z"></path>
</svg>
